<?xml version="1.0" ?><!DOCTYPE svg  PUBLIC '-//W3C//DTD SVG 1.1//EN'  'http://www.w3.org/Graphics/SVG/1.1/DTD/svg11.dtd'><svg enable-background="new 0 0 512 512" height="512px" id="Layer_1" version="1.1" viewBox="0 0 512 512" width="512px" xml:space="preserve" xmlns="http://www.w3.org/2000/svg" xmlns:xlink="http://www.w3.org/1999/xlink"><g><g><g><g><g><g><g><circle cx="256" cy="256" fill="#86CCCC" r="256"/></g></g></g></g></g><g><g><g><g><g><g><rect fill="#F2BB64" height="48.049" width="84" x="214" y="110.139"/></g></g></g></g></g><g><g><g><g><g><g><g><polygon fill="#FFFFFF" points="192,455.795 320,455.795 316.68,416 195.32,416            "/></g></g></g></g></g><g><g><g><g><g><polygon fill="#E36A5C" points="195.32,416 316.68,416 311.338,352 200.662,352            "/></g></g></g></g></g><g><g><g><g><g><polygon fill="#FFFFFF" points="206.004,288 200.662,352 311.338,352 305.996,288            "/></g></g></g></g></g><g><g><g><g><g><polygon fill="#E36A5C" points="300.656,224 211.344,224 206.004,288 305.996,288            "/></g></g></g></g></g><g><g><g><g><g><polygon fill="#FFFFFF" points="296,168.205 216,168.205 211.344,224 300.656,224            "/></g></g></g></g></g></g><g><g><g><g><g><path d="M274,110.563h-12h-12h-12h-24v47.625h24h12h12h12h24v-47.625H274z M238,146.188h-12v-23.625h12            V146.188z M262,146.188h-12v-23.625h12V146.188z M286,146.188h-12v-23.625h12V146.188z" fill="#242C3C"/></g></g></g></g></g><g><g><g><g><g><path d="M214,110.139c0-23.197,42-42,42-42s42,18.803,42,42H214z" fill="#FFFFFF"/></g></g></g></g></g><g><g><g><g><g><rect fill="#242C3C" height="16" width="84" x="214" y="152"/></g></g></g></g></g><g><g><g><g><g><rect fill="#242C3C" height="32" width="32" x="240" y="424"/></g></g></g></g></g><g><g><g><g><g><circle cx="256" cy="424" fill="#242C3C" r="16"/></g></g></g></g></g></g><g><g><g><g><g><g><path d="M214,110.139L71.195,78.852c-26.809,27.959-47.332,61.988-59.305,99.822L214,151.25V110.139z" fill="#F7D8A7"/></g></g></g></g></g></g></g></g></g></svg>